# xmcd
#
# Track frame offsets:
#	150
#	28440
#	48785
#	71675
#	91935
#	115142
#	131027
#	150570
#	170427
#	187765
#	208840
#
# Disc length: 2909 seconds
#
# Revision: 1
# Processed by: cddbd v1.5PL3 Copyright (c) Steve Scherf et al.
# Submitted via: CDex 1.50Beta5
#
DISCID=930b5b0b
DTITLE=シャ乱Q - ベストアルバム おまけつき ’96〜’99
DYEAR=1999
DGENRE=Rock
TTITLE0=Club Q
TTITLE1=涙の影
TTITLE2=NICE BOY!
TTITLE3=そんなもんだろう
TTITLE4=パワーソング
TTITLE5=都会のメロディー
TTITLE6=ためいき
TTITLE7=愛 Just on my Love
TTITLE8=君は魔術士?
TTITLE9=不偏愛
TTITLE10=タクシードライバー
EXTD=
EXTT0=
EXTT1=
EXTT2=
EXTT3=
EXTT4=
EXTT5=
EXTT6=
EXTT7=
EXTT8=
EXTT9=
EXTT10=
PLAYORDER=
